<?xml version="1.0" encoding="UTF-8" standalone="no"?>
<!-- Created with Inkscape (http://www.inkscape.org/) -->

<svg
   xmlns:dc="http://purl.org/dc/elements/1.1/"
   xmlns:cc="http://creativecommons.org/ns#"
   xmlns:rdf="http://www.w3.org/1999/02/22-rdf-syntax-ns#"
   xmlns:svg="http://www.w3.org/2000/svg"
   xmlns="http://www.w3.org/2000/svg"
   xmlns:sodipodi="http://sodipodi.sourceforge.net/DTD/sodipodi-0.dtd"
   xmlns:inkscape="http://www.inkscape.org/namespaces/inkscape"
   version="1.1"
   id="svg3713"
   xml:space="preserve"
   width="400"
   height="400"
   viewBox="0 0 400 400"
   sodipodi:docname="Grefresh_item.svg"
   inkscape:version="0.92.3 (2405546, 2018-03-11)"><metadata
     id="metadata3719"><rdf:RDF><cc:Work
         rdf:about=""><dc:format>image/svg+xml</dc:format><dc:type
           rdf:resource="http://purl.org/dc/dcmitype/StillImage" /><dc:title></dc:title></cc:Work></rdf:RDF></metadata><defs
     id="defs3717"><clipPath
       clipPathUnits="userSpaceOnUse"
       id="clipPath3729"><path
         d="M 0,300 H 300 V 0 H 0 Z"
         id="path3727"
         inkscape:connector-curvature="0" /></clipPath></defs><sodipodi:namedview
     pagecolor="#ffffff"
     bordercolor="#666666"
     borderopacity="1"
     objecttolerance="10"
     gridtolerance="10"
     guidetolerance="10"
     inkscape:pageopacity="0"
     inkscape:pageshadow="2"
     inkscape:window-width="1072"
     inkscape:window-height="828"
     id="namedview3715"
     showgrid="false"
     inkscape:zoom="2.02"
     inkscape:cx="200"
     inkscape:cy="200"
     inkscape:window-x="319"
     inkscape:window-y="56"
     inkscape:window-maximized="0"
     inkscape:current-layer="g3721" /><g
     id="g3721"
     inkscape:groupmode="layer"
     inkscape:label="General Icons"
     transform="matrix(1.3333333,0,0,-1.3333333,0,400)"><g
       id="g3723"><g
         id="g3725"
         clip-path="url(#clipPath3729)"><g
           id="g3731"
           transform="translate(258.1215,203.9112)"><path
             d="m 0,0 h -48.372 c 4.408,-4.521 8.33,-9.532 11.751,-15 H 0 v -126.369 h -199.917 c 0,-8.272 6.729,-15 15,-15 H 0 c 8.271,0 15,6.728 15,15 V -15 C 15,-6.729 8.271,0 0,0"
             style="fill:#ffffff;fill-opacity:1;fill-rule:nonzero;stroke:none"
             id="path3733"
             inkscape:connector-curvature="0" /></g><g
           id="g3735"
           transform="translate(146.2934,228.0039)"><path
             d="m 0,0 c 9.569,-0.648 18.575,-2.207 26.954,-4.633 v 19.087 c 0,5.524 -4.477,10 -10,10 H -1.242 Z"
             style="fill:#ffffff;fill-opacity:1;fill-rule:nonzero;stroke:none"
             id="path3737"
             inkscape:connector-curvature="0" /></g><g
           id="g3739"
           transform="translate(148.6,182.6055)"><path
             d="m 0,0 1.239,-24.396 -86.32,44.163 77.387,50.086 h -104.028 c -5.523,0 -10,-4.477 -10,-10 v -184.916 c 0,-5.524 4.477,-10 10,-10 H 14.647 c 5.523,0 10,4.476 10,10 V -7.665 C 17.883,-3.74 9.651,-1.175 0,0"
             style="fill:#ffffff;fill-opacity:1;fill-rule:nonzero;stroke:none"
             id="path3741"
             inkscape:connector-curvature="0" /></g><g
           id="g3743"
           transform="translate(136.7709,218.3477)"><path
             d="m 0,0 c 31.615,-0.191 56.937,-10.168 73.598,-29.119 18.642,-21.204 22.467,-49.389 20.947,-74.222 7.58,-5.033 11.858,-14.251 10.135,-23.772 -2.313,-12.769 -14.542,-21.247 -27.311,-18.936 -12.767,2.313 -21.247,14.542 -18.934,27.311 1.261,6.968 5.481,12.654 11.128,16.01 1.702,24.548 -3.293,44.081 -14.74,57.101 C 40.822,-29.703 19.38,-25.35 1.271,-25.019 l 0.931,-18.329 -55.481,28.387 52.319,33.862 z"
             style="fill:#e34e61;fill-opacity:1;fill-rule:nonzero;stroke:none"
             id="path3745"
             inkscape:connector-curvature="0" /></g><g
           id="g3747"
           transform="translate(63.4457,189.5557)"><path
             d="m 0,0 c 0,-2.895 -2.346,-5.241 -5.241,-5.241 -2.895,0 -5.241,2.346 -5.241,5.241 1.66,0 3.305,1.209 5.241,1.209 C -3.649,1.209 -1.818,0 0,0"
             style="fill:#100f0d;fill-opacity:1;fill-rule:nonzero;stroke:none"
             id="path3749"
             inkscape:connector-curvature="0" /></g><g
           id="g3751"
           transform="translate(54.433,159.3174)"><path
             d="M 0,0 H 7.544 L 6.325,26.341 H 1.219 Z"
             style="fill:#100f0d;fill-opacity:1;fill-rule:nonzero;stroke:none"
             id="path3753"
             inkscape:connector-curvature="0" /></g><g
           id="g3755"
           transform="translate(74.9945,156.1407)"><path
             d="M 0,0 V 2.321 L -16.79,3.714 -33.579,2.321 V 0 l 16.789,-1.393 z"
             style="fill:#100f0d;fill-opacity:1;fill-rule:nonzero;stroke:none"
             id="path3757"
             inkscape:connector-curvature="0" /></g><g
           id="g3759"
           transform="translate(73.9955,157.3018)"><path
             d="M 0,0 C 0,1.484 1.204,2.688 2.688,2.688 4.173,2.688 5.376,1.484 5.376,0 5.376,-1.484 4.173,-2.688 2.688,-2.688 1.204,-2.688 0,-1.484 0,0"
             style="fill:#100f0d;fill-opacity:1;fill-rule:nonzero;stroke:none"
             id="path3761"
             inkscape:connector-curvature="0" /></g><g
           id="g3763"
           transform="translate(37.0385,157.3018)"><path
             d="M 0,0 C 0,1.484 1.203,2.688 2.688,2.688 4.172,2.688 5.375,1.484 5.375,0 5.375,-1.484 4.172,-2.688 2.688,-2.688 1.203,-2.688 0,-1.484 0,0"
             style="fill:#100f0d;fill-opacity:1;fill-rule:nonzero;stroke:none"
             id="path3765"
             inkscape:connector-curvature="0" /></g><g
           id="g3767"
           transform="translate(51.4184,66.8555)"><path
             d="M 0,0 6.786,-6.45 13.573,0 V 89.774 L 6.786,88.968 0,89.774 Z"
             style="fill:#100f0d;fill-opacity:1;fill-rule:nonzero;stroke:none"
             id="path3769"
             inkscape:connector-curvature="0" /></g></g></g></g></svg>