<?xml version="1.0" encoding="UTF-8" standalone="no"?>
<!-- Created with Inkscape (http://www.inkscape.org/) -->

<svg
   xmlns:dc="http://purl.org/dc/elements/1.1/"
   xmlns:cc="http://creativecommons.org/ns#"
   xmlns:rdf="http://www.w3.org/1999/02/22-rdf-syntax-ns#"
   xmlns:svg="http://www.w3.org/2000/svg"
   xmlns="http://www.w3.org/2000/svg"
   xmlns:sodipodi="http://sodipodi.sourceforge.net/DTD/sodipodi-0.dtd"
   xmlns:inkscape="http://www.inkscape.org/namespaces/inkscape"
   version="1.1"
   id="svg121"
   xml:space="preserve"
   width="337.52667"
   height="241.092"
   viewBox="0 0 337.52667 241.092"
   sodipodi:docname="minusOneItemIcon.svg"
   inkscape:version="0.92.2 5c3e80d, 2017-08-06"><metadata
     id="metadata127"><rdf:RDF><cc:Work
         rdf:about=""><dc:format>image/svg+xml</dc:format><dc:type
           rdf:resource="http://purl.org/dc/dcmitype/StillImage" /><dc:title></dc:title></cc:Work></rdf:RDF></metadata><defs
     id="defs125"><clipPath
       clipPathUnits="userSpaceOnUse"
       id="clipPath137"><path
         d="M 0,300 H 300 V 0 H 0 Z"
         id="path135"
         inkscape:connector-curvature="0" /></clipPath></defs><sodipodi:namedview
     pagecolor="#ffffff"
     bordercolor="#666666"
     borderopacity="1"
     objecttolerance="10"
     gridtolerance="10"
     guidetolerance="10"
     inkscape:pageopacity="0"
     inkscape:pageshadow="2"
     inkscape:window-width="743"
     inkscape:window-height="480"
     id="namedview123"
     showgrid="false"
     fit-margin-top="0"
     fit-margin-left="0"
     fit-margin-right="0"
     fit-margin-bottom="0"
     inkscape:zoom="0.59"
     inkscape:cx="168.7636"
     inkscape:cy="120.54574"
     inkscape:window-x="0"
     inkscape:window-y="0"
     inkscape:window-maximized="0"
     inkscape:current-layer="g129" /><g
     id="g129"
     inkscape:groupmode="layer"
     inkscape:label="General Icons"
     transform="matrix(1.3333333,0,0,-1.3333333,-31.236399,320.54626)"><g
       id="g131"><g
         id="g133"
         clip-path="url(#clipPath137)"><g
           id="g139"
           transform="translate(276.5723,228.0557)"><path
             d="m 0,0 c 0,6.822 -5.53,12.354 -12.354,12.354 h -228.438 c -6.822,0 -12.353,-5.532 -12.353,-12.354 v -156.111 c 0,-6.823 5.531,-12.354 12.354,-12.354 h 228.437 c 6.824,0 12.354,5.531 12.354,12.354 z"
             style="fill:#ffffff;fill-opacity:1;fill-rule:nonzero;stroke:none"
             id="path141"
             inkscape:connector-curvature="0" /></g><g
           id="g143"
           transform="translate(150,229.75)"><path
             d="m 0,0 c -43.974,0 -79.75,-35.775 -79.75,-79.75 0,-43.975 35.776,-79.75 79.75,-79.75 43.975,0 79.75,35.775 79.75,79.75 C 79.75,-35.775 43.975,0 0,0 m 0,-10 c 38.521,0 69.75,-31.229 69.75,-69.75 0,-38.521 -31.229,-69.75 -69.75,-69.75 -38.522,0 -69.75,31.229 -69.75,69.75 0,38.521 31.228,69.75 69.75,69.75"
             style="fill:#231f20;fill-opacity:1;fill-rule:nonzero;stroke:none"
             id="path145"
             inkscape:connector-curvature="0" /></g><g
           id="g147"
           transform="translate(144.2383,150.0928)"><path
             d="m 0,0 v -3.541 l -8.853,-8.115 H -47.362 V -8.41 L -38.51,0 Z"
             style="fill:#e34e61;fill-opacity:1;fill-rule:nonzero;stroke:none"
             id="path149"
             inkscape:connector-curvature="0" /></g><g
           id="g151"
           transform="translate(175.2227,195.7725)"><path
             d="m 0,0 v -78.938 c 0,-2.656 0.442,-4.55 1.328,-5.68 0.885,-1.133 2.408,-1.696 4.573,-1.696 v -4.132 c -19.969,-8.756 -30.002,-13.132 -30.099,-13.132 l -2.361,4.722 c 0.787,0 1.746,0.343 2.877,1.033 1.13,0.686 2.089,1.475 2.877,2.36 2.067,2.36 3.099,5.95 3.099,10.771 v 72.888 c 0,2.066 -0.69,3.762 -2.065,5.09 -1.379,1.328 -2.657,2.163 -3.837,2.509 -1.181,0.343 -2.706,0.712 -4.574,1.106 v 3.246 l 19.328,9.886 C -6.69,9.147 -4.673,7.695 -2.804,5.681 -0.937,3.663 0,1.771 0,0"
             style="fill:#e34e61;fill-opacity:1;fill-rule:nonzero;stroke:none"
             id="path153"
             inkscape:connector-curvature="0" /></g></g></g></g></svg>