<svg width="772" height="772" viewBox="0 0 772 772" fill="none" xmlns="http://www.w3.org/2000/svg">
  <path d="M385.798 764.927C380.568 764.927 375.654 762.891 371.955 759.194L12.4004 399.639C8.70437 395.942 6.66705 391.026 6.66705 385.796C6.66705 380.568 8.70437 375.652 12.4004 371.955L371.955 12.3992C375.654 8.70317 380.568 6.66583 385.798 6.66583C391.027 6.66583 395.942 8.70317 399.64 12.3992L759.195 371.955C762.891 375.652 764.928 380.568 764.928 385.796C764.928 391.026 762.891 395.942 759.195 399.639L399.64 759.194C395.942 762.891 391.027 764.927 385.798 764.927Z" fill="#C83B96"/>
  <path d="M455.101 618.752C455.253 623.049 452.662 626.926 448.575 628.265C436.417 632.251 409.811 639.986 384.424 640.737C359.458 641.478 334.864 634.392 323.285 630.463C319.154 629.062 316.659 625.008 316.925 620.654C317.293 614.618 317.738 605.519 317.797 596H454.358C454.617 604.788 454.901 613.123 455.101 618.752Z" fill="white"/>
  <path d="M454.082 586C453.845 576.667 453.681 567.775 453.722 562H314.907C316.653 567.859 317.438 576.689 317.699 586H454.082Z" fill="white"/>
  <path d="M305.08 552H456.921C458.452 550.331 460.515 548.167 462.928 545.637C467.538 540.802 473.426 534.628 479.321 528H284.526C291.269 537.513 298.25 546.095 305.08 552Z" fill="white"/>
  <path d="M277.718 518H487.87C490.179 515.168 492.383 512.334 494.392 509.558C497.471 505.307 500.47 499.915 503.359 494H263.16C264.497 496.684 265.938 499.3 267.491 501.828C270.75 507.132 274.18 512.615 277.718 518Z" fill="white"/>
  <path d="M258.743 484H507.96C510.548 478.088 513.021 472.012 515.355 466.28C515.529 465.851 515.703 465.425 515.876 465H252.7C254.337 471.389 256.318 477.797 258.743 484Z" fill="white"/>
  <path d="M249.411 450H522.189C524.841 444.129 527.199 439.788 529.202 438.151C530.644 436.972 534.151 434.027 538.905 430H246.344C247.129 436.204 248.103 442.978 249.411 450Z" fill="white"/>
  <path d="M244.59 415H556.5C561.788 410.466 567.353 405.674 572.741 401H242.416C243.247 403.852 243.872 408.737 244.59 415Z" fill="white"/>
  <path d="M234.835 381H481.953C475.702 378.822 472.719 374.61 471.168 369H228.578C231.156 373.626 233.189 377.558 234.835 381Z" fill="white"/>
  <path d="M216.677 349H278.543C275.321 346.235 271.66 341.937 267.955 337H209.041C211.835 341.319 214.371 345.307 216.677 349Z" fill="white"/>
  <path d="M196.76 317H254.471C253.337 315.177 252.26 313.417 251.258 311.759C249.447 308.762 247.151 305.046 244.524 301H189.396C191.099 305.754 193.523 311.058 196.76 317Z" fill="white"/>
  <path d="M186.51 281H230.32C228.068 278.162 225.774 275.454 223.49 273H189.384C187.963 275.353 186.978 277.994 186.51 281Z" fill="white"/>
  <path d="M269.261 273C270.123 275.228 271.17 277.94 272.328 281H322.029C321.257 279.065 320.476 277.142 319.685 275.249C319.382 274.525 319.073 273.775 318.758 273H269.261Z" fill="white"/>
  <path d="M309.24 248H259.062C257.813 244.797 256.568 241.429 255.417 238L305.579 238C306.799 241.341 308.026 244.697 309.24 248Z" fill="white"/>
  <path d="M350.462 273C350.802 275.674 351.136 278.351 351.449 281H397.633C397.487 278.48 397.321 275.798 397.141 273L350.462 273Z" fill="white"/>
  <path d="M395.389 248L347.515 248C347.316 245.759 347.159 243.616 347.058 241.598C347 240.437 346.922 239.236 346.826 238H394.634C394.885 241.272 395.138 244.626 395.389 248Z" fill="white"/>
  <path d="M430.623 273C429.886 275.678 429.142 278.369 428.409 281H482.663C483.228 278.664 483.792 276.331 484.353 274.013L484.353 274.012L484.354 274.01C484.435 273.673 484.517 273.336 484.598 273H430.623Z" fill="white"/>
  <path d="M490.606 248H437.39C437.924 245.998 438.349 244.393 438.632 243.312C438.892 242.323 439.273 240.53 439.784 238.126C439.793 238.084 439.801 238.042 439.81 238L492.94 238C492.234 241.081 491.449 244.437 490.606 248Z" fill="white"/>
  <path d="M497.974 213C498.136 212.27 498.303 211.525 498.474 210.765L498.474 210.764C498.959 208.605 499.468 206.334 499.944 204L448.498 204C447.524 207.028 446.626 210.05 445.801 213L497.974 213Z" fill="white"/>
  <path d="M392.658 213C392.34 209.096 392.082 205.988 391.915 204H342.403C342.643 205.642 342.885 207.28 343.125 208.908C343.327 210.28 343.529 211.644 343.727 213H392.658Z" fill="white"/>
  <path d="M296.313 213C295.039 209.676 293.842 206.637 292.753 204H250.729C250.066 206.714 249.853 209.753 249.989 213L296.313 213Z" fill="white"/>
  <path d="M339.219 179L389.364 179C389.003 176.052 388.607 173.016 388.175 170L338.557 170C338.698 172.898 338.927 175.911 339.219 179Z" fill="white"/>
  <path d="M465.389 170H496.645C498.848 172.605 500.241 175.666 501.044 179H459.028C460.99 175.597 463.108 172.542 465.389 170Z" fill="white"/>
  <path d="M477.863 301H422.637C421.854 303.538 421.23 305.412 420.836 306.348C418.216 312.567 413.323 312.566 408.436 311.578C407.815 311.452 407.201 311.392 406.601 311.333C403.426 311.021 400.639 310.746 399.1 301H353.21C353.466 307.493 353.208 313.07 352.073 317H474.126C475.267 312.006 476.531 306.607 477.863 301Z" fill="white"/>
  <path d="M469.857 337H289.004C289.654 342.073 289.621 346.264 288.592 349H469.007C468.933 347.87 468.851 346.724 468.755 345.563C468.65 344.28 469.062 341.273 469.857 337Z" fill="white"/>
  <path d="M522.603 369C520.482 370.603 518.729 371.886 517.432 372.669C516.749 373.082 516.064 373.502 515.376 373.923L515.372 373.925L515.369 373.927C511.003 376.6 506.526 379.342 501.432 381H595.422C600.396 376.485 603.706 373.305 604.218 372.407C604.621 371.7 604.755 370.508 604.592 369H522.603Z" fill="white"/>
  <path d="M591.232 349H552.82C560.751 345.193 569.027 342.777 576.682 343.714C582.519 344.429 587.337 346.398 591.232 349Z" fill="white"/>
  <path d="M284.556 317H337.878C335.212 313.001 332.597 307.368 329.955 301H279.531C281.314 306.268 283.049 311.712 284.556 317Z" fill="white"/>
  <path fill-rule="evenodd" clip-rule="evenodd" d="M367.242 7.6853C372.367 2.5613 379.082 0 385.798 0C392.514 0 399.228 2.5613 404.354 7.6853L763.908 367.241C774.158 377.489 774.158 394.104 763.908 404.353L404.354 763.908C399.228 769.031 392.514 771.593 385.798 771.593C379.082 771.593 372.367 769.031 367.242 763.908L7.687 404.353C-2.56233 394.104 -2.56233 377.489 7.687 367.241L367.242 7.6853ZM394.926 17.1134C392.487 14.676 389.246 13.3333 385.798 13.3333C382.35 13.3333 379.108 14.676 376.67 17.1134L17.1137 376.669C12.0817 381.703 12.0817 389.892 17.1137 394.924L376.67 754.479C379.108 756.917 382.35 758.26 385.798 758.26C389.246 758.26 392.487 756.917 394.926 754.48L754.482 394.924C759.514 389.892 759.514 381.703 754.482 376.669L394.926 17.1134Z" fill="white"/>
</svg>
